<svg width="20" height="20" viewBox="0 0 23 27" fill="none" xmlns="http://www.w3.org/2000/svg">
<path d="M2.24113 2.66189C3.70531 0.759312 9.02623 0 11.2726 0C18.7913 0 22.734 2.44413 22.5019 14.3954C20.84 7.82235 12.8343 7.33524 9.22107 7.76791C8.02527 7.94909 6.81966 8.05817 5.61076 8.09456C3.70531 8.09456 2.28984 7.60458 1.85144 5.80229C1.60789 4.56447 1.51047 3.74785 2.24113 2.66189Z" fill="#f0f0f1"/>
<path d="M16.0091 9.99713C14.5691 9.79085 13.1169 9.68172 11.6624 9.67048C-2.00527 9.67048 -1.37203 20.808 2.14373 24.7192L2.86579 25.4241C4.18384 26.4556 5.84287 27 7.79416 27C10.9689 27 13.117 25.8051 14.2383 23.4155V23.5243C14.777 25.6418 16.2899 26.3897 18.1924 26.3897C20.1581 26.4011 22.35 25.2149 22.35 21.0229V18.0516C22.35 13.9083 19.6194 10.6017 16.0091 9.99713ZM13.2727 18.9112C12.6881 19.6753 11.7607 20.0573 10.4904 20.0573C8.92883 20.0573 8.14946 19.3524 8.14946 17.9943C8.14946 15.2235 11.7598 15.0057 14.2497 15.2779C14.1036 16.2435 14.542 17.3295 13.2727 18.9112Z" fill="#f0f0f1"/>
</svg>
