<svg width="172" height="33" viewBox="0 0 172 33" fill="none" xmlns="http://www.w3.org/2000/svg">
<path d="M2.69936 3.20623C4.46529 0.917406 10.8746 0 13.5799 0C22.6349 0 27.3973 2.94322 27.103 17.3399C25.1054 9.42455 15.4616 8.83278 11.1094 9.3588C9.66771 9.57511 8.21443 9.7058 6.75724 9.75018C4.46529 9.75018 2.75885 9.16154 2.22969 7.00109C1.93537 5.49818 1.81639 4.51502 2.69936 3.20623Z" fill="#4776E6"/>
<path d="M19.2816 12.0421C17.5484 11.7928 15.8004 11.661 14.0495 11.6476C-2.41683 11.6476 -1.65284 25.0643 2.58351 29.7734L3.46334 30.6251C5.0508 31.8775 7.05156 32.5225 9.41239 32.5225C13.2344 32.5225 15.8217 31.0833 17.1743 28.2048V28.3363C17.8225 30.8881 19.6448 31.8024 21.9367 31.8024C24.2913 31.8024 26.9464 30.3652 26.9464 25.3242V21.7266C26.9277 16.7513 23.6338 12.7591 19.2816 12.0421ZM15.9908 22.7723C15.2832 23.6887 14.1654 24.1469 12.6374 24.1469C10.7588 24.1469 9.81943 23.2952 9.81943 21.6608C9.81943 18.3231 14.1685 18.0601 17.1681 18.3888C16.9896 19.5661 17.5344 20.8749 15.9908 22.7723Z" fill="#8E54E9"/>
<path d="M35.2156 22.8381C35.9796 22.8381 39.6273 23.7555 42.5079 23.7555C44.3866 23.7555 45.9177 23.2952 45.9177 21.9864C45.9199 21.7359 45.8399 21.4916 45.6901 21.2909C45.5402 21.0901 45.3287 20.944 45.0879 20.8749C43.2093 20.0233 39.452 19.6976 36.2677 17.9317C36.681 16.2941 37.326 14.8006 38.4594 13.6766C39.1483 12.8978 40.0405 12.3262 41.0359 12.0259C42.0313 11.7256 43.0907 11.7085 44.0954 11.9764C48.2691 13.0222 55.6804 14.3967 55.6804 22.7723C55.6804 29.5136 50.5047 32.1311 45.0347 32.654C41.7258 32.9546 38.3901 32.6046 35.2156 31.6239C32.9237 30.838 31.7464 29.332 31.5711 28.0889C30.9981 24.6698 32.98 22.8381 35.2156 22.8381ZM31.6869 9.81594C31.6869 2.2262 37.6861 0 43.3909 0C45.6233 0 52.5618 0.588643 53.7986 3.00897C54.222 3.74963 54.4634 4.58023 54.5031 5.43242C54.5031 7.06685 53.4448 9.88169 50.4327 9.88169C49.2585 9.88169 45.0817 8.7044 42.7897 9.03004C39.4958 9.55293 35.7323 12.8907 35.4379 17.4057C33.2744 15.9028 31.6869 13.7423 31.6869 9.81594Z" fill="#8E54E9"/>
<path d="M73.0265 11.6476C74.7774 11.6611 76.5254 11.7929 78.2586 12.0421C82.6108 12.7592 85.9047 16.7388 85.9047 21.7266V25.3242C85.9047 30.3652 83.2589 31.8024 80.8949 31.8024C78.603 31.8024 76.7807 30.8881 76.1326 28.3363V28.2048C74.7799 31.0812 72.1926 32.5204 68.3706 32.5225C66.0192 32.5225 64.0184 31.8681 62.4216 30.6251L61.5417 29.7734C57.3242 25.0643 56.5602 11.6476 73.0265 11.6476ZM61.6826 3.20623C63.4423 0.917406 69.8516 0 72.5537 0C81.612 0 86.3743 2.94322 86.08 17.3399C84.0792 9.42455 74.4355 8.83278 70.0864 9.3588C68.6447 9.57511 67.1914 9.7058 65.7342 9.75018C63.4423 9.75018 61.7359 9.16154 61.2067 7.00109C60.9124 5.49818 60.7934 4.51502 61.6826 3.20623ZM71.6207 24.1469C73.1486 24.1469 74.2654 23.6887 74.9709 22.7723C76.502 20.8749 75.9729 19.5661 76.1482 18.3888C73.1486 18.0757 68.7996 18.3231 68.7996 21.6608C68.7933 23.2952 69.7326 24.1469 71.6144 24.1469H71.6207Z" fill="#8E54E9"/>
<path d="M93.3692 0.85166C93.9036 0.851295 94.4308 0.975303 94.909 1.21387C95.3872 1.45244 95.8034 1.79903 96.1245 2.2262C96.8885 3.00897 97.5366 4.31777 98.1816 6.2152C98.7108 7.85275 99.1804 9.34628 99.5937 10.796L101.472 16.817C101.072 18.4504 100.167 19.9161 98.8861 21.0064C98.228 21.5131 97.4216 21.7892 96.591 21.7923C94.9566 21.7923 93.3692 20.6651 92.6803 18.7865C92.0322 17.1521 91.4436 15.1231 90.8017 13.5513L89.7434 10.6739C89.2142 9.16781 88.9199 8.12203 88.9199 7.46763C88.8604 6.74748 88.8604 6.35297 88.8604 6.15884C88.8416 3.07473 90.6076 0.85166 93.3692 0.85166ZM97.1265 23.2295C99.4215 23.2295 101.479 21.6639 102.243 18.7802C102.537 17.9317 103.476 14.6597 104.419 11.8449L106.182 6.20894C107.299 2.61133 108.887 0.845398 111.003 0.845398C111.802 0.854429 112.584 1.07768 113.267 1.49185C113.95 1.90602 114.509 2.49592 114.886 3.19997C115.298 4.13096 115.519 5.13482 115.537 6.15258C115.576 7.70372 115.276 9.24469 114.657 10.6676L113.659 13.4136C113.014 15.0511 112.309 17.1458 111.601 19.1747C110.956 20.7403 110.484 22.3058 110.073 23.4267C109.779 24.1469 109.544 24.7355 109.366 25.3242C108.016 28.9907 105.956 31.8024 102.193 31.8024C100.65 31.8458 99.1521 31.2839 98.0188 30.2368C96.8415 29.2537 95.8417 27.6172 95.0192 25.3273L93.7856 21.9896C94.7112 22.7998 95.9026 23.2412 97.1327 23.2295H97.1265Z" fill="#8E54E9"/>
<path d="M122.476 4.97214C124.652 2.09467 128.296 0.0657349 133.178 0.0657349C140.94 0.0657349 146.585 5.75804 146.585 13.9396C146.585 18.4546 144.879 20.6776 141.409 20.6776H128.65C128.65 23.2952 132.473 24.0154 134.177 24.0154C135.923 23.962 137.658 23.7206 139.352 23.2952C140.1 23.0941 140.87 22.9889 141.644 22.9821C143.82 22.9821 144.879 24.6165 144.879 26.9085C144.879 31.7491 136.766 32.7323 133.647 32.7323C129.239 32.7323 124.827 31.2262 122.241 27.6286C121.22 26.1888 120.633 24.4866 120.55 22.7237C120.467 20.9607 120.891 19.2108 121.771 17.6812C123.359 14.9979 126.12 13.2319 129.708 13.2319H137.646C137.646 10.8742 136.237 8.91104 133.178 8.71691C127.542 8.38815 120.124 12.709 119.476 21.4761C118.123 15.9027 118.947 9.61866 122.476 4.97214Z" fill="#8E54E9"/>
<path d="M150.699 25.3242V24.3442C150.699 19.8291 154.053 16.6855 157.932 16.6855C158.798 16.6678 159.658 16.8243 160.462 17.1458V25.3242C160.462 29.1848 159.05 31.8024 155.581 31.8024C152.052 31.8024 150.699 28.9907 150.699 25.3242Z" fill="#8E54E9"/>
<path d="M159.476 5.4418C159.477 4.73595 159.535 4.03133 159.648 3.33458C158.781 1.73773 157.55 0.917389 155.577 0.917389C152.108 0.917389 150.696 3.46922 150.696 7.39559V20.0389C151.933 16.4413 154.929 14.6096 157.988 14.6096C158.827 14.611 159.661 14.743 160.459 15.001C160.433 13.849 160.622 12.7023 161.016 11.6194C159.993 9.7219 159.463 7.59758 159.476 5.4418Z" fill="#8E54E9"/>
<path d="M166.812 0.0657507C165.074 0.0543669 163.381 0.620441 161.999 1.67513C161.573 2.88185 161.354 4.15245 161.354 5.43242C161.351 6.93872 161.654 8.43001 162.244 9.81593C162.966 9.22271 163.88 8.91324 164.814 8.94549C166.636 8.94549 168.224 9.34001 169.824 8.55411C171.236 7.76821 172 6.06803 172 4.23322C171.987 1.11153 169.636 0.0657507 166.812 0.0657507Z" fill="#4776E6"/>
</svg>
