<svg width="48" height="48" viewBox="0 0 48 48" fill="none" xmlns="http://www.w3.org/2000/svg">
<path d="M34 26.8V32.8C34 40.8 30.8 44 22.8 44H15.2C7.2 44 4 40.8 4 32.8V25.2C4 17.2 7.2 14 15.2 14H21.2" stroke="#4776E6" stroke-width="1.5" stroke-linecap="round" stroke-linejoin="round"/>
<path d="M23.2 4H31.2M14 10C14 6.68 16.68 4 20 4H25.24M44 16V28.38C44 31.48 41.48 34 38.38 34M44 16H38C33.5 16 32 14.5 32 10V4L44 16ZM34 26.8H27.6C22.8 26.8 21.2 25.2 21.2 20.4V14L34 26.8Z" stroke="#4776E6" stroke-width="1.5" stroke-linecap="round" stroke-linejoin="round"/>
</svg>
