<svg xmlns="http://www.w3.org/2000/svg" width="24" height="24" viewBox="0 0 24 24">
  <g id="document-normal" transform="translate(-748 -188)">
    <g id="document-normal-2" data-name="document-normal">
      <path id="Vector" d="M2,4H6C8,4,8,3,8,2,8,0,7,0,6,0H2C1,0,0,0,0,2S1,4,2,4Z" transform="translate(756 190)" fill="none" stroke="#8e54e9" stroke-linecap="round" stroke-linejoin="round" stroke-width="1.5"/>
      <path id="Vector-2" data-name="Vector" d="M13,0c3.33.18,5,1.41,5,5.98v6c0,4-1,6-6,6H6c-5,0-6-2-6-6v-6C0,1.42,1.67.18,5,0" transform="translate(751 192.02)" fill="none" stroke="#8e54e9" stroke-linecap="round" stroke-linejoin="round" stroke-width="1.5"/>
      <path id="Vector-3" data-name="Vector" d="M0,0H24V24H0Z" transform="translate(748 188)" fill="none" opacity="0"/>
    </g>
  </g>
</svg>
